<svg xmlns="http://www.w3.org/2000/svg" viewBox="0 0 1094 240" width="1094" height="240">
  <defs><linearGradient id="eg-txt" x1="0" y1="0" x2="1" y2="0"><stop offset="0" stop-color="#ffb23e"/><stop offset="1" stop-color="#ff6f7d"/></linearGradient></defs>
  <g transform="scale(0.46875)">
  <!-- Ehtiyars Game: kulaklıklı, gözlüklü, bıyıklı neşeli bir "ihtiyar" oyuncu -->
  <defs>
    <linearGradient id="eg-bg" x1="0" y1="0" x2="1" y2="1">
      <stop offset="0" stop-color="#ffcf4d"/>
      <stop offset="0.5" stop-color="#ff7b54"/>
      <stop offset="1" stop-color="#9b5cff"/>
    </linearGradient>
    <linearGradient id="eg-skin" x1="0" y1="0" x2="0" y2="1">
      <stop offset="0" stop-color="#ffe2c2"/>
      <stop offset="1" stop-color="#f7c49b"/>
    </linearGradient>
  </defs>
  <circle cx="256" cy="256" r="248" fill="url(#eg-bg)"/>
  <circle cx="256" cy="256" r="248" fill="none" stroke="#1a1440" stroke-opacity=".12" stroke-width="8"/>
  <!-- kafa -->
  <ellipse cx="256" cy="272" rx="138" ry="150" fill="url(#eg-skin)"/>
  <!-- yan saçlar -->
  <path d="M122 250 C 96 232, 100 196, 126 186 C 120 214, 134 232, 150 240 Z" fill="#ffffff"/>
  <path d="M390 250 C 416 232, 412 196, 386 186 C 392 214, 378 232, 362 240 Z" fill="#ffffff"/>
  <!-- kulaklık bandı -->
  <path d="M108 262 C 100 120, 412 120, 404 262" fill="none" stroke="#1a1440" stroke-width="26" stroke-linecap="round"/>
  <!-- kulaklıklar -->
  <rect x="84" y="228" width="58" height="92" rx="26" fill="#1a1440"/>
  <rect x="96" y="240" width="34" height="68" rx="16" fill="#7b5cff"/>
  <rect x="370" y="228" width="58" height="92" rx="26" fill="#1a1440"/>
  <rect x="382" y="240" width="34" height="68" rx="16" fill="#7b5cff"/>
  <!-- mikrofon -->
  <path d="M398 312 C 396 368, 360 392, 318 394" fill="none" stroke="#1a1440" stroke-width="12" stroke-linecap="round"/>
  <circle cx="312" cy="394" r="14" fill="#1a1440"/>
  <!-- kaşlar -->
  <path d="M168 206 C 186 186, 222 186, 236 200" fill="none" stroke="#ffffff" stroke-width="18" stroke-linecap="round"/>
  <path d="M276 200 C 290 186, 326 186, 344 206" fill="none" stroke="#ffffff" stroke-width="18" stroke-linecap="round"/>
  <!-- gözlük -->
  <circle cx="204" cy="252" r="42" fill="#ffffff" fill-opacity=".35" stroke="#1a1440" stroke-width="12"/>
  <circle cx="308" cy="252" r="42" fill="#ffffff" fill-opacity=".35" stroke="#1a1440" stroke-width="12"/>
  <path d="M246 250 Q 256 240 266 250" fill="none" stroke="#1a1440" stroke-width="10" stroke-linecap="round"/>
  <!-- gözler (göz kırpan) -->
  <circle cx="204" cy="256" r="12" fill="#1a1440"/>
  <circle cx="208" cy="251" r="4" fill="#ffffff"/>
  <path d="M292 258 Q 308 246 324 258" fill="none" stroke="#1a1440" stroke-width="9" stroke-linecap="round"/>
  <!-- burun -->
  <ellipse cx="256" cy="300" rx="22" ry="18" fill="#eba77c"/>
  <!-- bıyık -->
  <path d="M256 318 C 236 306, 200 308, 176 330 C 164 342, 150 340, 142 330 C 150 364, 196 368, 226 350 C 240 342, 250 336, 256 334 C 262 336, 272 342, 286 350 C 316 368, 362 364, 370 330 C 362 340, 348 342, 336 330 C 312 308, 276 306, 256 318 Z" fill="#ffffff"/>
  <!-- gülümseme -->
  <path d="M222 370 Q 256 392 290 370" fill="none" stroke="#b5603a" stroke-width="9" stroke-linecap="round"/>
  <!-- oyun kolu rozeti -->
  <g transform="translate(256 454)">
    <rect x="-58" y="-26" width="116" height="52" rx="26" fill="#1a1440"/>
    <path d="M-34 0 h20 M-24 -10 v20" stroke="#ffcf4d" stroke-width="7" stroke-linecap="round"/>
    <circle cx="20" cy="-6" r="6" fill="#29d3a6"/>
    <circle cx="34" cy="6" r="6" fill="#ff5b7a"/>
  </g>
</g>
  <path d="M358.85 142L308 142Q300.95 142 297.27 138.32Q293.60 134.65 293.60 127.75L293.60 127.75L293.60 50.50Q293.60 43.60 297.27 39.92Q300.95 36.25 308 36.25L308 36.25L358.85 36.25Q364.25 36.25 366.95 38.95Q369.65 41.65 369.65 46.75L369.65 46.75Q369.65 52 366.95 54.78Q364.25 57.55 358.85 57.55L358.85 57.55L320 57.55L320 77.65L355.55 77.65Q360.80 77.65 363.57 80.35Q366.35 83.05 366.35 88.30L366.35 88.30Q366.35 93.55 363.57 96.25Q360.80 98.95 355.55 98.95L355.55 98.95L320 98.95L320 120.70L358.85 120.70Q364.25 120.70 366.95 123.47Q369.65 126.25 369.65 131.35L369.65 131.35Q369.65 136.60 366.95 139.30Q364.25 142 358.85 142L358.85 142ZM405.50 143.35L405.50 143.35Q398.90 143.35 395.30 139.68Q391.70 136 391.70 129.25L391.70 129.25L391.70 49Q391.70 42.10 395.30 38.50Q398.90 34.90 405.50 34.90L405.50 34.90Q412.25 34.90 415.78 38.50Q419.30 42.10 419.30 49L419.30 49L419.30 77.05L462.95 77.05L462.95 49Q462.95 42.10 466.48 38.50Q470 34.90 476.75 34.90L476.75 34.90Q483.35 34.90 486.88 38.50Q490.40 42.10 490.40 49L490.40 49L490.40 129.25Q490.40 136 486.88 139.68Q483.35 143.35 476.75 143.35L476.75 143.35Q470 143.35 466.48 139.68Q462.95 136 462.95 129.25L462.95 129.25L462.95 99.70L419.30 99.70L419.30 129.25Q419.30 136 415.85 139.68Q412.40 143.35 405.50 143.35ZM554.30 143.35L554.30 143.35Q547.70 143.35 544.10 139.68Q540.50 136 540.50 129.40L540.50 129.40L540.50 58.75L516.95 58.75Q511.40 58.75 508.48 55.83Q505.55 52.90 505.55 47.50L505.55 47.50Q505.55 41.95 508.48 39.10Q511.40 36.25 516.95 36.25L516.95 36.25L591.65 36.25Q597.20 36.25 600.13 39.10Q603.05 41.95 603.05 47.50L603.05 47.50Q603.05 52.90 600.13 55.83Q597.20 58.75 591.65 58.75L591.65 58.75L568.10 58.75L568.10 129.40Q568.10 136 564.65 139.68Q561.20 143.35 554.30 143.35ZM632 143.35L632 143.35Q625.40 143.35 621.80 139.68Q618.20 136 618.20 129.25L618.20 129.25L618.20 49Q618.20 42.10 621.80 38.50Q625.40 34.90 632 34.90L632 34.90Q638.75 34.90 642.27 38.50Q645.80 42.10 645.80 49L645.80 49L645.80 129.25Q645.80 136 642.35 139.68Q638.90 143.35 632 143.35ZM709.70 143.35L709.70 143.35Q703.10 143.35 699.50 139.68Q695.90 136 695.90 129.10L695.90 129.10L695.90 88L701.60 103.15L667.10 53.50Q664.55 49.90 664.92 45.48Q665.30 41.05 668.52 37.98Q671.75 34.90 677.75 34.90L677.75 34.90Q681.95 34.90 685.40 36.92Q688.85 38.95 691.85 43.75L691.85 43.75L712.85 74.65L707.45 74.65L728.45 43.60Q731.60 38.80 734.90 36.85Q738.20 34.90 742.70 34.90L742.70 34.90Q748.40 34.90 751.55 37.75Q754.70 40.60 754.92 44.95Q755.15 49.30 752.15 53.80L752.15 53.80L717.95 103.15L723.50 88L723.50 129.10Q723.50 143.35 709.70 143.35ZM768.95 143.35L768.95 143.35Q764.30 143.35 761.15 141.18Q758 139 757.25 135.18Q756.50 131.35 758.60 126.55L758.60 126.55L795.95 46.15Q798.65 40.30 802.63 37.60Q806.60 34.90 811.70 34.90L811.70 34.90Q816.80 34.90 820.63 37.60Q824.45 40.30 827.30 46.15L827.30 46.15L864.65 126.55Q867.05 131.35 866.38 135.25Q865.70 139.15 862.63 141.25Q859.55 143.35 855.05 143.35L855.05 143.35Q849.05 143.35 845.82 140.65Q842.60 137.95 840.05 131.95L840.05 131.95L831.95 112.90L842.45 120.55L780.65 120.55L791.30 112.90L783.20 131.95Q780.50 137.95 777.65 140.65Q774.80 143.35 768.95 143.35ZM811.70 65.05L811.40 65.05L794 106.60L789.80 99.40L833.45 99.40L829.25 106.60L811.70 65.05ZM898.25 143.35L898.25 143.35Q891.65 143.35 888.05 139.68Q884.45 136 884.45 129.40L884.45 129.40L884.45 50.20Q884.45 43.45 888.13 39.85Q891.80 36.25 898.40 36.25L898.40 36.25L935.30 36.25Q953.30 36.25 963.13 45.03Q972.95 53.80 972.95 69.40L972.95 69.40Q972.95 79.45 968.52 86.88Q964.10 94.30 955.77 98.28Q947.45 102.25 935.30 102.25L935.30 102.25L936.50 99.55L943.70 99.55Q950.15 99.55 955.10 102.63Q960.05 105.70 963.35 112L963.35 112L970.85 125.50Q973.25 129.85 973.10 133.97Q972.95 138.10 969.88 140.72Q966.80 143.35 960.95 143.35L960.95 143.35Q955.10 143.35 951.43 140.95Q947.75 138.55 944.90 133.45L944.90 133.45L931.25 108.40Q929.45 105.10 926.68 103.83Q923.90 102.55 920.30 102.55L920.30 102.55L912.05 102.55L912.05 129.40Q912.05 136 908.60 139.68Q905.15 143.35 898.25 143.35ZM912.05 57.40L912.05 83.05L930.35 83.05Q938.30 83.05 942.50 79.90Q946.70 76.75 946.70 70.15L946.70 70.15Q946.70 63.85 942.50 60.63Q938.30 57.40 930.35 57.40L930.35 57.40L912.05 57.40ZM1035.05 143.65L1035.05 143.65Q1029.05 143.65 1022.52 142.82Q1016 142 1010.15 140.35Q1004.30 138.70 999.65 136.45L999.65 136.45Q995.60 134.50 993.95 131.28Q992.30 128.05 992.75 124.45Q993.20 120.85 995.30 118.08Q997.40 115.30 1000.85 114.33Q1004.30 113.35 1008.65 115.30L1008.65 115.30Q1014.35 118 1021.55 119.50Q1028.75 121 1035.05 121L1035.05 121Q1044.95 121 1048.92 118.38Q1052.90 115.75 1052.90 111.85L1052.90 111.85Q1052.90 108.40 1050.13 106.30Q1047.35 104.20 1040.30 102.70L1040.30 102.70L1022.75 98.95Q1008.35 95.95 1001.30 88.45Q994.25 80.95 994.25 69.10L994.25 69.10Q994.25 61.30 997.48 54.92Q1000.70 48.55 1006.63 44.05Q1012.55 39.55 1020.73 37.08Q1028.90 34.60 1038.95 34.60L1038.95 34.60Q1046.75 34.60 1054.78 36.33Q1062.80 38.05 1068.65 41.50L1068.65 41.50Q1072.10 43.30 1073.60 46.45Q1075.10 49.60 1074.80 52.98Q1074.50 56.35 1072.47 58.90Q1070.45 61.45 1067.08 62.28Q1063.70 63.10 1059.05 61.15L1059.05 61.15Q1054.70 59.20 1049.22 58.23Q1043.75 57.25 1038.65 57.25L1038.65 57.25Q1033.10 57.25 1029.20 58.53Q1025.30 59.80 1023.27 62.20Q1021.25 64.60 1021.25 67.75L1021.25 67.75Q1021.25 70.90 1023.88 73.08Q1026.50 75.25 1033.55 76.75L1033.55 76.75L1050.95 80.50Q1065.50 83.65 1072.70 90.85Q1079.90 98.05 1079.90 109.60L1079.90 109.60Q1079.90 117.40 1076.75 123.70Q1073.60 130 1067.75 134.43Q1061.90 138.85 1053.65 141.25Q1045.40 143.65 1035.05 143.65Z" fill="#ffffff"/>
  <path d="M319.08 222.81L319.08 222.81Q310.27 222.81 304.17 219.48Q298.06 216.15 294.88 210.16Q291.70 204.17 291.70 196.10L291.70 196.10Q291.70 189.88 293.59 184.89Q295.47 179.89 299.06 176.38Q302.65 172.86 307.80 170.94Q312.94 169.02 319.45 169.02L319.45 169.02Q323.45 169.02 327.44 169.90Q331.44 170.79 335.14 172.86L335.14 172.86Q336.69 173.75 337.25 175.12Q337.80 176.49 337.54 178.01Q337.28 179.52 336.36 180.67Q335.43 181.82 333.99 182.15Q332.55 182.48 330.70 181.60L330.70 181.60Q328.26 180.26 325.52 179.63Q322.78 179.01 319.52 179.01L319.52 179.01Q314.27 179.01 310.72 180.97Q307.17 182.93 305.43 186.74Q303.69 190.55 303.69 196.10L303.69 196.10Q303.69 204.46 307.72 208.75Q311.75 213.05 319.67 213.05L319.67 213.05Q322.34 213.05 325.15 212.53Q327.96 212.01 330.70 211.05L330.70 211.05L328.55 215.71L328.55 201.50L321.89 201.50Q319.67 201.50 318.49 200.39Q317.30 199.28 317.30 197.36L317.30 197.36Q317.30 195.36 318.49 194.29Q319.67 193.21 321.89 193.21L321.89 193.21L333.51 193.21Q335.73 193.21 336.88 194.40Q338.02 195.58 338.02 197.80L338.02 197.80L338.02 214.97Q338.02 216.89 337.28 218.23Q336.54 219.56 334.77 220.15L334.77 220.15Q331.44 221.33 327.29 222.07Q323.15 222.81 319.08 222.81ZM371.64 222.67L371.64 222.67Q369.57 222.67 368.28 221.70Q366.98 220.74 366.65 219.11Q366.31 217.49 367.28 215.49L367.28 215.49L386.22 173.97Q387.40 171.46 389.03 170.31Q390.66 169.16 392.81 169.16L392.81 169.16Q394.95 169.16 396.58 170.31Q398.21 171.46 399.32 173.97L399.32 173.97L418.41 215.49Q419.37 217.49 419.11 219.15Q418.85 220.82 417.60 221.74Q416.34 222.67 414.34 222.67L414.34 222.67Q411.82 222.67 410.46 221.48Q409.09 220.30 408.05 217.78L408.05 217.78L403.61 207.50L408.20 210.68L377.34 210.68L381.93 207.50L377.56 217.78Q376.45 220.37 375.23 221.52Q374.01 222.67 371.64 222.67ZM392.81 182.04L392.66 182.04L383.19 204.61L381.19 201.72L404.35 201.72L402.35 204.61L392.81 182.04ZM453.21 222.67L453.21 222.67Q450.70 222.67 449.36 221.26Q448.03 219.85 448.03 217.34L448.03 217.34L448.03 174.49Q448.03 171.98 449.48 170.57Q450.92 169.16 453.43 169.16L453.43 169.16Q455.65 169.16 456.95 170.01Q458.24 170.87 459.35 172.94L459.35 172.94L476.45 204.17L473.93 204.17L491.03 172.94Q492.14 170.87 493.43 170.01Q494.73 169.16 496.87 169.16L496.87 169.16Q499.39 169.16 500.76 170.57Q502.13 171.98 502.13 174.49L502.13 174.49L502.13 217.34Q502.13 219.85 500.79 221.26Q499.46 222.67 496.95 222.67L496.95 222.67Q494.43 222.67 493.06 221.26Q491.69 219.85 491.69 217.34L491.69 217.34L491.69 187.37L493.32 187.37L479.56 212.01Q478.67 213.42 477.67 214.12Q476.67 214.82 475.04 214.82L475.04 214.82Q473.41 214.82 472.38 214.08Q471.34 213.34 470.53 212.01L470.53 212.01L456.62 187.29L458.39 187.29L458.39 217.34Q458.39 219.85 457.10 221.26Q455.80 222.67 453.21 222.67ZM566.53 222L540.70 222Q537.82 222 536.26 220.45Q534.71 218.89 534.71 216.01L534.71 216.01L534.71 175.82Q534.71 172.94 536.26 171.38Q537.82 169.83 540.70 169.83L540.70 169.83L566.53 169.83Q568.75 169.83 569.89 170.98Q571.04 172.12 571.04 174.27L571.04 174.27Q571.04 176.49 569.89 177.64Q568.75 178.78 566.53 178.78L566.53 178.78L545.66 178.78L545.66 190.99L564.83 190.99Q567.12 190.99 568.27 192.14Q569.41 193.29 569.41 195.51L569.41 195.51Q569.41 197.73 568.27 198.88Q567.12 200.02 564.83 200.02L564.83 200.02L545.66 200.02L545.66 213.05L566.53 213.05Q568.75 213.05 569.89 214.19Q571.04 215.34 571.04 217.49L571.04 217.49Q571.04 219.71 569.89 220.85Q568.75 222 566.53 222L566.53 222Z" fill="url(#eg-txt)"/>
</svg>